<svg width="73" height="73" viewBox="0 0 73 73" fill="none" xmlns="http://www.w3.org/2000/svg">
<rect x="0.25" y="0.5" width="72" height="72" rx="36" fill="#EAF5EE"/>
<path d="M24.5835 39.8333H46.4764C48.1644 39.8333 49.0084 39.8333 49.6803 39.5186C50.2722 39.2414 50.7696 38.7962 51.1105 38.2386C51.4974 37.6055 51.5907 36.7666 51.7771 35.0889L52.7521 26.3139C52.809 25.8015 52.8375 25.5452 52.7551 25.3469C52.6827 25.1727 52.5534 25.0283 52.3883 24.9371C52.2003 24.8333 51.9425 24.8333 51.4269 24.8333H23.7502M19.5833 19.8333H21.664C22.105 19.8333 22.3255 19.8333 22.4981 19.9172C22.6499 19.991 22.7758 20.1093 22.859 20.2562C22.9535 20.4232 22.9672 20.6433 22.9947 21.0835L24.5051 45.2498C24.5326 45.69 24.5464 45.9101 24.6409 46.077C24.724 46.224 24.8499 46.3423 25.0018 46.4161C25.1743 46.5 25.3948 46.5 25.8359 46.5H47.9166M28.7499 52.3333H28.7666M43.7499 52.3333H43.7666M29.5833 52.3333C29.5833 52.7936 29.2102 53.1666 28.7499 53.1666C28.2897 53.1666 27.9166 52.7936 27.9166 52.3333C27.9166 51.8731 28.2897 51.5 28.7499 51.5C29.2102 51.5 29.5833 51.8731 29.5833 52.3333ZM44.5833 52.3333C44.5833 52.7936 44.2102 53.1666 43.7499 53.1666C43.2897 53.1666 42.9166 52.7936 42.9166 52.3333C42.9166 51.8731 43.2897 51.5 43.7499 51.5C44.2102 51.5 44.5833 51.8731 44.5833 52.3333Z" stroke="#ABD6BC" stroke-width="3" stroke-linecap="round" stroke-linejoin="round"/>
</svg>
