<svg width="73" height="73" viewBox="0 0 73 73" fill="none" xmlns="http://www.w3.org/2000/svg">
<rect x="0.75" y="0.5" width="72" height="72" rx="36" fill="#EAF5EE"/>
<path d="M25.0835 37.766C25.0835 35.5031 25.0835 34.3716 25.5409 33.377C25.9984 32.3825 26.8574 31.6461 28.5756 30.1734L30.2422 28.7449C33.3478 26.083 34.9005 24.752 36.7502 24.752C38.5998 24.752 40.1525 26.083 43.2581 28.7449L44.9247 30.1734C46.6429 31.6461 47.502 32.3825 47.9594 33.377C48.4168 34.3716 48.4168 35.5031 48.4168 37.766V44.8333C48.4168 47.976 48.4168 49.5474 47.4405 50.5237C46.4642 51.5 44.8929 51.5 41.7502 51.5H31.7502C28.6075 51.5 27.0361 51.5 26.0598 50.5237C25.0835 49.5474 25.0835 47.976 25.0835 44.8333V37.766Z" stroke="#ABD6BC" stroke-width="3"/>
<path d="M40.9168 51.5V42.5C40.9168 41.9477 40.4691 41.5 39.9168 41.5H33.5835C33.0312 41.5 32.5835 41.9477 32.5835 42.5V51.5" stroke="#ABD6BC" stroke-width="3" stroke-linecap="round" stroke-linejoin="round"/>
</svg>
