<svg xmlns="http://www.w3.org/2000/svg" width="24" height="24" viewBox="0 0 24 24" fill="none" stroke="#1F503B" stroke-width="2" stroke-linecap="round" stroke-linejoin="round" class="lucide lucide-package-plus"><path d="M21 10V8a2 2 0 0 0-1-1.73l-7-4a2 2 0 0 0-2 0l-7 4A2 2 0 0 0 3 8v8a2 2 0 0 0 1 1.73l7 4a2 2 0 0 0 2 0l2-1.14"/><path d="m7.5 4.27 9 5.15"/><polyline points="3.29 7 12 12 20.71 7"/><line x1="12" x2="12" y1="22" y2="12"/>
<g transform="translate(11.5, 10.5)">
  <rect xmlns="http://www.w3.org/2000/svg" width="5.5" height="4.5" x="5.7" y="5.3" rx="1" ry="1" class=""/>
  <path d="M6.6 4.7V3.4a1.6 1.4 0 0 1 3.5 0.1v1.3"/>
</g></svg>