<svg width="73" height="73" viewBox="0 0 73 73" fill="none" xmlns="http://www.w3.org/2000/svg">
<rect x="0.75" y="0.5" width="72" height="72" rx="36" fill="#EAF5EE"/>
<path d="M30.0835 31.5H43.4168" stroke="#ABD6BC" stroke-width="3" stroke-linecap="round" stroke-linejoin="round"/>
<path d="M30.0835 38.1667H40.0835" stroke="#ABD6BC" stroke-width="3" stroke-linecap="round" stroke-linejoin="round"/>
<path d="M35.0667 48.51L30.0833 51.5V46.5H26.75C25.4239 46.5 24.1521 45.9732 23.2145 45.0355C22.2768 44.0979 21.75 42.8261 21.75 41.5V28.1667C21.75 26.8406 22.2768 25.5688 23.2145 24.6311C24.1521 23.6935 25.4239 23.1667 26.75 23.1667H46.75C48.0761 23.1667 49.3479 23.6935 50.2855 24.6311C51.2232 25.5688 51.75 26.8406 51.75 28.1667V38.1667" stroke="#ABD6BC" stroke-width="3" stroke-linecap="round" stroke-linejoin="round"/>
<path d="M41.75 48.1667L45.0833 51.5L51.75 44.8333" stroke="#ABD6BC" stroke-width="3" stroke-linecap="round" stroke-linejoin="round"/>
</svg>
