<svg width="67" height="67" viewBox="0 0 67 67" fill="none" xmlns="http://www.w3.org/2000/svg">
<rect x="0.75" y="0.5" width="66" height="66" rx="33" fill="#EAF5EE"/>
<path fill-rule="evenodd" clip-rule="evenodd" d="M33.8698 42.3067L27.3615 45.7284C27.0862 45.8731 26.776 45.9379 26.4658 45.9155C26.1557 45.8931 25.858 45.7844 25.6064 45.6016C25.3548 45.4189 25.1593 45.1694 25.0421 44.8813C24.9249 44.5933 24.8906 44.2782 24.9431 43.9717L26.1848 36.7234L20.9198 31.59C20.6975 31.3729 20.5402 31.098 20.4659 30.7963C20.3915 30.4945 20.403 30.178 20.4991 29.8825C20.5951 29.5869 20.7718 29.3241 21.0093 29.1237C21.2468 28.9233 21.5357 28.7933 21.8431 28.7484L29.1198 27.69L32.3748 21.0967C32.5124 20.8176 32.7253 20.5826 32.9895 20.4182C33.2537 20.2539 33.5587 20.1667 33.8698 20.1667C34.181 20.1667 34.4859 20.2539 34.7501 20.4182C35.0143 20.5826 35.2273 20.8176 35.3648 21.0967L38.6181 27.69L45.8948 28.7484C46.2024 28.793 46.4914 28.9229 46.7292 29.1232C46.9669 29.3235 47.1439 29.5863 47.2401 29.8818C47.3363 30.1774 47.3479 30.494 47.2737 30.7959C47.1994 31.0978 47.0422 31.3728 46.8198 31.59L41.5531 36.7234L42.7965 43.9717C42.8488 44.278 42.8144 44.5928 42.6973 44.8806C42.5801 45.1683 42.3849 45.4177 42.1335 45.6003C41.8822 45.783 41.5848 45.8918 41.2749 45.9144C40.965 45.9371 40.655 45.8726 40.3798 45.7284L33.8698 42.3067Z" fill="#C0E0CD"/>
</svg>
